# xmcd
#
# Track frame offsets: 
#        150
#        10954
#        25882
#        35858
#        50859
#        66763
#        82066
#        93019
#        109223
#        123101
#
# Disc length: 1813 seconds
#
# Revision: 0
# Processed by: cddbd v1.5.2PL0 Copyright (c) Steve Scherf et al.
# Submitted via: ExactAudioCopyFreeDBPlugin 1.0
#
DISCID=8307130a
DTITLE=Billie Jo Spears - If You Want Me
DYEAR=1977
DGENRE=Country
TTITLE0=If You Want Me
TTITLE1=Every Time I Sing A Love Song
TTITLE2=Too Much Is Not Enough
TTITLE3=Loving Him Was Easier
TTITLE4=Look Whose Man You Are
TTITLE5=Sweet Music Man
TTITLE6=Don't Ever Let Go Of Me
TTITLE7=The End Of Me
TTITLE8=One More Time
TTITLE9=She's Out There Dancin' Alone
EXTD=
EXTT0=
EXTT1=
EXTT2=
EXTT3=
EXTT4=
EXTT5=
EXTT6=
EXTT7=
EXTT8=
EXTT9=
PLAYORDER=
